<svg xmlns="http://www.w3.org/2000/svg" viewBox="0 0 97.53 93.23"><defs><style>.cls-1{fill:#fff;}.cls-2{fill:#d9f4ff;}</style></defs><g id="Layer_2" data-name="Layer 2"><g id="Illustrations"><path class="cls-1" d="M43.67,0S25.81,11.51,28.19,21c0,0-34.13,19-22.82,37.1,0,0-15.5,14.36,6.15,27.78,4.75,2.94,18.26,1.39,18.26,1.39,21.43,6.15,43,11.31,56-5,7.93,1.19,21.69-17.07.64-26,0,0,4.91-20.84-17.71-27.58,0,0,5.73-10.61-11.3-15.68C50,10.91,46.31,8.22,43.67,0Z"/><path class="cls-2" d="M43.27,1.52S35.34,12.73,48.83,21s2.51,10.72,2.51,10.72S75,30.09,67.61,24.73,40.36,13,43.27,1.52Z"/><path class="cls-2" d="M36.85,35.57s26.13,8.67,17.66,23c0,0,30.42-1.06,26.72-9.39S36.85,35.57,36.85,35.57Z"/><path class="cls-2" d="M86.74,71.61c1.45-5-10.58-12-24.73-6.48s-20.9,3.57-25.27.4-6.88-8.87-6.88-8.87.4,10.7,5.43,14.93c5.88,5,26,9.51,37.13,7.79C86,77.3,86.74,71.61,86.74,71.61Z"/></g></g></svg>