<svg xmlns="http://www.w3.org/2000/svg" viewBox="0 0 99.76 146.71"><defs><style>.cls-1{fill:#a2db35;}.cls-2{fill:#fff;}.cls-3{fill:#b70502;}</style></defs><g id="Layer_2" data-name="Layer 2"><g id="Illustrations"><path class="cls-1" d="M.71,56.52s-.13,13.13,6,23.13,10.59,19.07,31.06,23.78c8,1.84,4.94,11.24,4,14.17,0,0-23.92,3-23.92,11.82s9.62,17.29,32.49,17.29,31.31-8.45,31.31-17.94-23.78-11-23.78-11-4.16-10.92,1.43-13.52,25.34-5.19,32.75-23,8.32-20.92,7.41-22.87-1.69-9.22-48.34-9.22S1.88,53.14.71,56.52Z"/><path class="cls-2" d="M50.23,69.06S5.22,68.42.82,56.23,11.18,40.87,11.18,40.87s-.58-4.06.94-6.92,5.75-3.89,7-3.13c0,0,.58-3.2,3.41-2.43,0,0,1.5-6.05,10.64-4.75a8,8,0,0,1,2.35.75c1.69.81,5.25,2.11,6.86-.55,2.14-3.55,2.8-3.76,4.27-3.73,1.21,0,2.43,2.59,3.57,2.37s4.44-3.91,9-1.66c3.57,1.78,4.35,8.26,4.35,8.26s4.15-2.16,5.59,2.26c0,0,2.08,1.79,6,0S83.3,31,85.25,38.4c0,0,7.77,2.29,5.37,8.78,0,0,7.74,5.2,6,9.44S82.51,68,50.23,69.06Z"/><path class="cls-3" d="M35.3,45.42s0-11.11,13.09-8.87c0,0,8.94,1.56,8.16,11.3,0,0-10,.2-11.89,1.66A12.73,12.73,0,0,0,35.3,45.42Z"/><path class="cls-3" d="M49.05,38S60.55,15.5,62,8.87c0,0,1.66-5,2.44-5.75s-.88-6.24-3.22-.59a20.28,20.28,0,0,1-.68,5.85c-.78,2.15-7,18.52-12.87,29.63Z"/></g></g></svg>