<svg xmlns="http://www.w3.org/2000/svg" viewBox="0 0 55.37 142.87"><defs><style>.cls-1{fill:#a2db35;}.cls-2{fill:#ffd41d;}.cls-3{fill:none;stroke:#dd8f1d;stroke-linecap:round;stroke-miterlimit:10;stroke-width:2px;}</style></defs><g id="Layer_2" data-name="Layer 2"><g id="Illustrations"><polygon class="cls-1" points="20.32 74.59 9.95 65.64 17.96 64.38 4.14 47.27 15.92 51.66 1.31 27.17 22.52 40.67 3.36 8.01 20 23.24 24.24 0 31.31 22.46 49.52 8.17 36.8 31.41 53.29 24.65 34.92 43.81 47.64 41.3 33.04 55.43 49.84 51.98 35.86 63.91 44.81 64.85 33.82 75.53 20.32 74.59"/><path class="cls-2" d="M37.75,71.35C29.27,69.06,25.66,77,18,72.29c0,0-19.16,1.41-17.9,31.41s8.42,36.74,18.81,38.47,4.12-.47,15.74.63S57.53,133.22,55,102.44,46.23,73.64,37.75,71.35Z"/><line class="cls-3" x1="12.63" y1="123.43" x2="22.12" y2="132.92"/><line class="cls-3" x1="14.58" y1="131.53" x2="24.35" y2="121.76"/><line class="cls-3" x1="24.63" y1="100.27" x2="38.03" y2="113.67"/><line class="cls-3" x1="28.3" y1="111.71" x2="40.28" y2="99.74"/><line class="cls-3" x1="15.14" y1="91.06" x2="24.63" y2="81.57"/><line class="cls-3" x1="17.38" y1="81.85" x2="25.19" y2="89.67"/></g></g></svg>