<svg xmlns="http://www.w3.org/2000/svg" viewBox="0 0 169.12 182.83"><defs><style>.cls-1{fill:#ffcf5f;}.cls-2{fill:#6a8e20;}.cls-3{fill:#df222e;}.cls-4{fill:#b0222e;}</style></defs><g id="Layer_2" data-name="Layer 2"><g id="Illustrations"><rect class="cls-1" width="169.12" height="182.83"/><polygon class="cls-2" points="93.57 62.54 78.47 31.29 98.31 52.22 111.99 26.54 111.99 57.8 138.22 41.05 122.03 67.29 151.62 80.4 101.38 77.05 93.57 62.54"/><path class="cls-3" d="M112.27,69.52S41.68,9.67,25.2,120.31c-3.91,26.23,4.13,37.37,21.51,35.84C111.15,150.45,163.62,122,112.27,69.52Z"/><ellipse class="cls-4" cx="55.38" cy="107.45" rx="2.79" ry="1.67" transform="translate(-64.05 88.79) rotate(-53.85)"/><ellipse class="cls-4" cx="37.48" cy="109.77" rx="2.79" ry="1.67" transform="translate(-73.27 75.29) rotate(-53.85)"/><ellipse class="cls-4" cx="42.83" cy="86.72" rx="2.79" ry="1.67" transform="translate(-52.46 70.15) rotate(-53.85)"/><ellipse class="cls-4" cx="61.38" cy="79.74" rx="2.79" ry="1.67" transform="translate(-39.21 82.27) rotate(-53.85)"/><ellipse class="cls-4" cx="61.38" cy="64.48" rx="2.79" ry="1.67" transform="translate(-26.89 76.02) rotate(-53.85)"/><ellipse class="cls-4" cx="88.87" cy="81.9" rx="2.79" ry="1.67" transform="translate(-29.69 105.36) rotate(-53.85)"/><ellipse class="cls-4" cx="82.31" cy="98.3" rx="2.79" ry="1.67" transform="translate(-45.61 106.79) rotate(-53.85)"/><ellipse class="cls-4" cx="110.57" cy="102.36" rx="2.79" ry="1.67" transform="translate(-37.31 131.27) rotate(-53.85)"/><ellipse class="cls-4" cx="117.83" cy="121.62" rx="2.79" ry="1.67" transform="translate(-49.88 145.03) rotate(-53.85)"/><ellipse class="cls-4" cx="73.8" cy="119.16" rx="2.79" ry="1.67" transform="translate(-65.95 108.47) rotate(-53.85)"/><ellipse class="cls-4" cx="98.78" cy="126.41" rx="2.79" ry="1.67" transform="translate(-61.57 131.62) rotate(-53.85)"/><ellipse class="cls-4" cx="61.38" cy="136.95" rx="2.79" ry="1.67" transform="translate(-85.41 105.74) rotate(-53.85)"/><ellipse class="cls-4" cx="83.08" cy="137.58" rx="2.79" ry="1.67" transform="translate(-77.02 123.52) rotate(-53.85)"/><ellipse class="cls-4" cx="42.36" cy="146.6" rx="2.79" ry="1.67" transform="translate(-101.01 94.34) rotate(-53.85)"/><ellipse class="cls-4" cx="45.76" cy="132.13" rx="2.79" ry="1.67" transform="translate(-87.93 91.14) rotate(-53.85)"/></g></g></svg>