<svg xmlns="http://www.w3.org/2000/svg" viewBox="0 0 169.12 182.83"><defs><style>.cls-1{fill:#09b1b5;}.cls-2{fill:#ffd41d;}.cls-3{fill:#fff;}.cls-4{fill:#b70502;}</style></defs><g id="Layer_2" data-name="Layer 2"><g id="Illustrations"><rect class="cls-1" width="169.12" height="182.83"/><path class="cls-2" d="M36.39,71.41s-.13,13.13,6,23.14S53,113.62,73.42,118.33c8,1.83,4.94,11.24,4,14.16,0,0-23.92,3-23.92,11.83S63.15,161.6,86,161.6s31.31-8.45,31.31-17.93-23.78-11-23.78-11S89.4,121.7,95,119.11s25.34-5.2,32.75-23,8.32-20.92,7.41-22.87S133.46,64,86.81,64,37.56,68,36.39,71.41Z"/><path class="cls-3" d="M85.91,84s-45-.64-49.41-12.83S46.86,55.76,46.86,55.76s-.58-4.06.94-6.92,5.75-3.89,7-3.12c0,0,.58-3.21,3.41-2.44,0,0,1.5-6.05,10.64-4.75a8,8,0,0,1,2.35.75c1.69.81,5.25,2.11,6.86-.55,2.14-3.55,2.8-3.76,4.27-3.72,1.21,0,2.43,2.58,3.57,2.37s4.44-3.92,9-1.66C98.43,37.5,99.21,44,99.21,44s4.15-2.16,5.59,2.26c0,0,2.08,1.8,6,0s8.2-.38,10.15,7.06c0,0,7.77,2.3,5.37,8.78,0,0,7.74,5.2,6,9.44S118.19,82.93,85.91,84Z"/><path class="cls-4" d="M71,60.31s0-11.11,13.09-8.87a10.17,10.17,0,0,1,8.16,11.31s-10,.19-11.89,1.65A12.77,12.77,0,0,0,71,60.31Z"/><path class="cls-4" d="M82.64,52.9s11.5-22.51,13-29.14c0,0,1.66-5,2.44-5.75s-.88-6.24-3.22-.58a20.22,20.22,0,0,1-.68,5.84c-.78,2.15-7,18.52-12.87,29.63Z"/></g></g></svg>