<svg xmlns="http://www.w3.org/2000/svg" viewBox="0 0 169.12 182.83"><defs><style>.cls-1{fill:#09b1b5;}.cls-2{fill:none;stroke:#d9f4ff;stroke-miterlimit:10;stroke-width:2px;}.cls-3{fill:#dd8f1d;}</style></defs><g id="Layer_2" data-name="Layer 2"><g id="Illustrations"><rect class="cls-1" width="169.12" height="182.83"/><path class="cls-2" d="M87.33,90.42l4.38,5.21a286.57,286.57,0,0,0-23.13,32.72c-11,18.33-24.9,25.11-35.84,14.17s-4-21.05,13.54-30.43S71.08,102.72,87.33,90.42Z"/><path class="cls-2" d="M32.74,142.52c9,3.75,14,2.21,19.38-2.3,12.82-10.69,39.76-48.55,38.16-47.33,0,0-44.57,23.23-50.42,27.75C29.56,128.58,29.11,137.84,32.74,142.52Z"/><path class="cls-2" d="M94.83,90.42S48,135.22,40.86,140,30.09,145.2,29,142.86c-1.5-3.17,5.34-13.21,67.72-56.4Z"/><path class="cls-3" d="M144.6,54.65a16.57,16.57,0,0,0-7.29-8.54L84.93,89.38s1.78,6.46,7.61,9.17Z"/></g></g></svg>