<svg xmlns="http://www.w3.org/2000/svg" viewBox="0 0 169.12 182.83"><defs><style>.cls-1{fill:#09b1b5;}.cls-2{fill:#fff;}.cls-3{fill:#d9f4ff;}</style></defs><g id="Layer_2" data-name="Layer 2"><g id="Illustrations"><rect class="cls-1" width="169.12" height="182.83"/><path class="cls-2" d="M85.3,46S67.44,57.45,69.82,67c0,0-34.12,19-22.81,37.1,0,0-15.5,14.36,6.15,27.78,4.74,2.93,18.25,1.38,18.25,1.38,21.43,6.15,43,11.31,56-5,7.94,1.19,21.69-17.06.64-26,0,0,4.92-20.83-17.7-27.58C110.3,74.71,116,64.1,99,59,91.65,56.86,87.94,54.17,85.3,46Z"/><path class="cls-3" d="M84.9,47.47S77,58.68,90.46,66.91,93,77.62,93,77.62s23.68-1.58,16.27-6.94S82,59,84.9,47.47Z"/><path class="cls-3" d="M78.48,81.52s26.13,8.67,17.66,23c0,0,30.43-1.06,26.72-9.4S78.48,81.52,78.48,81.52Z"/><path class="cls-3" d="M128.37,117.56c1.46-5-10.58-12-24.73-6.48s-20.9,3.57-25.27.39-6.87-8.86-6.87-8.86.39,10.7,5.42,14.93c5.89,5,26,9.5,37.13,7.79C127.58,123.25,128.37,117.56,128.37,117.56Z"/></g></g></svg>