<svg xmlns="http://www.w3.org/2000/svg" viewBox="0 0 169.12 182.83"><defs><style>.cls-1{fill:#09b1b5;}.cls-2{fill:#a2db35;}.cls-3{fill:#ffd41d;}.cls-4{fill:none;stroke:#dd8f1d;stroke-linecap:round;stroke-miterlimit:10;stroke-width:2px;}</style></defs><g id="Layer_2" data-name="Layer 2"><g id="Illustrations"><rect class="cls-1" width="169.12" height="182.83"/><polygon class="cls-2" points="75.03 90.31 64.67 81.36 72.68 80.1 58.86 62.98 70.64 67.38 56.03 42.88 77.23 56.39 58.08 23.73 74.72 38.96 78.96 15.72 86.03 38.17 104.24 23.88 91.52 47.13 108.01 40.37 89.64 59.53 102.36 57.02 87.75 71.15 104.56 67.7 90.58 79.63 99.53 80.57 88.54 91.25 75.03 90.31"/><path class="cls-3" d="M92.47,87.07c-8.48-2.3-12.1,5.65-19.79.94,0,0-19.16,1.41-17.9,31.41s8.42,36.74,18.81,38.47,4.11-.47,15.74.63,22.92-9.58,20.41-40.36S101,89.36,92.47,87.07Z"/><line class="cls-4" x1="67.35" y1="139.15" x2="76.84" y2="148.64"/><line class="cls-4" x1="69.3" y1="147.25" x2="79.07" y2="137.48"/><line class="cls-4" x1="79.35" y1="115.99" x2="92.75" y2="129.39"/><line class="cls-4" x1="83.02" y1="127.43" x2="95" y2="115.45"/><line class="cls-4" x1="69.86" y1="106.78" x2="79.35" y2="97.29"/><line class="cls-4" x1="72.09" y1="97.57" x2="79.91" y2="105.39"/></g></g></svg>