<svg xmlns="http://www.w3.org/2000/svg" viewBox="0 0 127.39 129.74"><defs><style>.cls-1{fill:#6a8e20;}.cls-2{fill:#df222e;}.cls-3{fill:#b0222e;}</style></defs><g id="Layer_2" data-name="Layer 2"><g id="Illustrations"><polygon class="cls-1" points="69.34 36 54.24 4.74 74.09 25.67 87.76 0 87.76 31.26 113.99 14.51 97.81 40.74 127.39 53.86 77.16 50.51 69.34 36"/><path class="cls-2" d="M88,43S17.45-16.87,1,93.77C-2.94,120,5.1,131.14,22.48,129.6,86.92,123.91,139.39,95.44,88,43Z"/><ellipse class="cls-3" cx="31.16" cy="80.91" rx="2.79" ry="1.67" transform="translate(-52.55 58.34) rotate(-53.85)"/><ellipse class="cls-3" cx="13.25" cy="83.23" rx="2.79" ry="1.67" transform="translate(-61.78 44.84) rotate(-53.85)"/><ellipse class="cls-3" cx="18.6" cy="60.17" rx="2.79" ry="1.67" transform="translate(-40.96 39.7) rotate(-53.85)"/><ellipse class="cls-3" cx="37.16" cy="53.2" rx="2.79" ry="1.67" transform="translate(-27.72 51.82) rotate(-53.85)"/><ellipse class="cls-3" cx="37.16" cy="37.94" rx="2.79" ry="1.67" transform="translate(-15.4 45.57) rotate(-53.85)"/><ellipse class="cls-3" cx="64.64" cy="55.36" rx="2.79" ry="1.67" transform="translate(-18.19 74.91) rotate(-53.85)"/><ellipse class="cls-3" cx="58.09" cy="71.75" rx="2.79" ry="1.67" transform="translate(-34.12 76.34) rotate(-53.85)"/><ellipse class="cls-3" cx="86.34" cy="75.82" rx="2.79" ry="1.67" transform="translate(-25.81 100.82) rotate(-53.85)"/><ellipse class="cls-3" cx="93.6" cy="95.08" rx="2.79" ry="1.67" transform="translate(-38.39 114.58) rotate(-53.85)"/><ellipse class="cls-3" cx="49.57" cy="92.62" rx="2.79" ry="1.67" transform="translate(-54.46 78.02) rotate(-53.85)"/><ellipse class="cls-3" cx="74.55" cy="99.87" rx="2.79" ry="1.67" transform="translate(-50.07 101.16) rotate(-53.85)"/><ellipse class="cls-3" cx="37.16" cy="110.41" rx="2.79" ry="1.67" transform="matrix(0.59, -0.81, 0.81, 0.59, -73.92, 75.29)"/><ellipse class="cls-3" cx="58.85" cy="111.03" rx="2.79" ry="1.67" transform="translate(-65.52 93.07) rotate(-53.85)"/><ellipse class="cls-3" cx="18.13" cy="120.06" rx="2.79" ry="1.67" transform="translate(-89.51 63.88) rotate(-53.85)"/><ellipse class="cls-3" cx="21.53" cy="105.59" rx="2.79" ry="1.67" transform="translate(-76.44 60.69) rotate(-53.85)"/></g></g></svg>