<svg xmlns="http://www.w3.org/2000/svg" viewBox="0 0 118.11 102.68"><defs><style>.cls-1{fill:none;stroke:#d9f4ff;stroke-miterlimit:10;stroke-width:2px;}.cls-2{fill:#dd8f1d;}</style></defs><g id="Layer_2" data-name="Layer 2"><g id="Illustrations"><path class="cls-1" d="M60.84,44.32l4.37,5.21A287.33,287.33,0,0,0,42.08,82.24c-11,18.34-24.9,25.11-35.84,14.17s-4-21,13.55-30.42S44.58,56.61,60.84,44.32Z"/><path class="cls-1" d="M6.24,96.41c9,3.75,14,2.22,19.38-2.29,12.83-10.7,39.77-48.55,38.17-47.34,0,0-44.57,23.23-50.43,27.75C3.06,82.48,2.62,91.73,6.24,96.41Z"/><path class="cls-1" d="M68.34,44.32s-46.89,44.8-54,49.59S3.59,99.1,2.49,96.76C1,93.59,7.84,83.55,70.22,40.36Z"/><path class="cls-2" d="M118.11,8.54A16.57,16.57,0,0,0,110.82,0L58.43,43.27s1.78,6.46,7.62,9.17Z"/></g></g></svg>